<svg id="visual" viewBox="0 0 1920 1080" width="1920" height="1080" xmlns="http://www.w3.org/2000/svg" xmlns:xlink="http://www.w3.org/1999/xlink" version="1.1"><path d="M0 55L96 55L96 66L192 66L192 66L288 66L288 66L384 66L384 55L480 55L480 55L576 55L576 66L672 66L672 55L768 55L768 66L864 66L864 55L960 55L960 55L1056 55L1056 66L1152 66L1152 66L1248 66L1248 55L1344 55L1344 66L1440 66L1440 55L1536 55L1536 55L1632 55L1632 55L1728 55L1728 66L1824 66L1824 66L1920 66L1920 55L1920 0L1920 0L1824 0L1824 0L1728 0L1728 0L1632 0L1632 0L1536 0L1536 0L1440 0L1440 0L1344 0L1344 0L1248 0L1248 0L1152 0L1152 0L1056 0L1056 0L960 0L960 0L864 0L864 0L768 0L768 0L672 0L672 0L576 0L576 0L480 0L480 0L384 0L384 0L288 0L288 0L192 0L192 0L96 0L96 0L0 0Z" fill="#000000"></path><path d="M0 163L96 163L96 163L192 163L192 163L288 163L288 152L384 152L384 163L480 163L480 141L576 141L576 152L672 152L672 152L768 152L768 152L864 152L864 163L960 163L960 152L1056 152L1056 163L1152 163L1152 152L1248 152L1248 163L1344 163L1344 163L1440 163L1440 163L1536 163L1536 152L1632 152L1632 152L1728 152L1728 152L1824 152L1824 163L1920 163L1920 152L1920 53L1920 64L1824 64L1824 64L1728 64L1728 53L1632 53L1632 53L1536 53L1536 53L1440 53L1440 64L1344 64L1344 53L1248 53L1248 64L1152 64L1152 64L1056 64L1056 53L960 53L960 53L864 53L864 64L768 64L768 53L672 53L672 64L576 64L576 53L480 53L480 53L384 53L384 64L288 64L288 64L192 64L192 64L96 64L96 53L0 53Z" fill="#020202"></path><path d="M0 239L96 239L96 249L192 249L192 239L288 239L288 228L384 228L384 249L480 249L480 228L576 228L576 239L672 239L672 228L768 228L768 228L864 228L864 239L960 239L960 228L1056 228L1056 239L1152 239L1152 228L1248 228L1248 249L1344 249L1344 239L1440 239L1440 239L1536 239L1536 228L1632 228L1632 239L1728 239L1728 228L1824 228L1824 239L1920 239L1920 239L1920 150L1920 161L1824 161L1824 150L1728 150L1728 150L1632 150L1632 150L1536 150L1536 161L1440 161L1440 161L1344 161L1344 161L1248 161L1248 150L1152 150L1152 161L1056 161L1056 150L960 150L960 161L864 161L864 150L768 150L768 150L672 150L672 150L576 150L576 139L480 139L480 161L384 161L384 150L288 150L288 161L192 161L192 161L96 161L96 161L0 161Z" fill="#030303"></path><path d="M0 314L96 314L96 314L192 314L192 303L288 303L288 293L384 293L384 314L480 314L480 303L576 303L576 303L672 303L672 303L768 303L768 293L864 293L864 303L960 303L960 293L1056 293L1056 314L1152 314L1152 293L1248 293L1248 314L1344 314L1344 303L1440 303L1440 303L1536 303L1536 293L1632 293L1632 303L1728 303L1728 303L1824 303L1824 303L1920 303L1920 303L1920 237L1920 237L1824 237L1824 226L1728 226L1728 237L1632 237L1632 226L1536 226L1536 237L1440 237L1440 237L1344 237L1344 247L1248 247L1248 226L1152 226L1152 237L1056 237L1056 226L960 226L960 237L864 237L864 226L768 226L768 226L672 226L672 237L576 237L576 226L480 226L480 247L384 247L384 226L288 226L288 237L192 237L192 247L96 247L96 237L0 237Z" fill="#050505"></path><path d="M0 357L96 357L96 357L192 357L192 347L288 347L288 336L384 336L384 357L480 357L480 347L576 347L576 347L672 347L672 347L768 347L768 336L864 336L864 347L960 347L960 336L1056 336L1056 357L1152 357L1152 336L1248 336L1248 357L1344 357L1344 347L1440 347L1440 347L1536 347L1536 336L1632 336L1632 347L1728 347L1728 347L1824 347L1824 347L1920 347L1920 347L1920 301L1920 301L1824 301L1824 301L1728 301L1728 301L1632 301L1632 291L1536 291L1536 301L1440 301L1440 301L1344 301L1344 312L1248 312L1248 291L1152 291L1152 312L1056 312L1056 291L960 291L960 301L864 301L864 291L768 291L768 301L672 301L672 301L576 301L576 301L480 301L480 312L384 312L384 291L288 291L288 301L192 301L192 312L96 312L96 312L0 312Z" fill="#070707"></path><path d="M0 552L96 552L96 552L192 552L192 541L288 541L288 552L384 552L384 541L480 541L480 563L576 563L576 563L672 563L672 530L768 530L768 519L864 519L864 530L960 530L960 563L1056 563L1056 563L1152 563L1152 519L1248 519L1248 541L1344 541L1344 541L1440 541L1440 563L1536 563L1536 552L1632 552L1632 530L1728 530L1728 541L1824 541L1824 563L1920 563L1920 541L1920 345L1920 345L1824 345L1824 345L1728 345L1728 345L1632 345L1632 334L1536 334L1536 345L1440 345L1440 345L1344 345L1344 355L1248 355L1248 334L1152 334L1152 355L1056 355L1056 334L960 334L960 345L864 345L864 334L768 334L768 345L672 345L672 345L576 345L576 345L480 345L480 355L384 355L384 334L288 334L288 345L192 345L192 355L96 355L96 355L0 355Z" fill="#080808"></path><path d="M0 671L96 671L96 681L192 681L192 681L288 681L288 681L384 681L384 660L480 660L480 681L576 681L576 681L672 681L672 660L768 660L768 660L864 660L864 660L960 660L960 681L1056 681L1056 692L1152 692L1152 660L1248 660L1248 660L1344 660L1344 660L1440 660L1440 681L1536 681L1536 681L1632 681L1632 660L1728 660L1728 681L1824 681L1824 681L1920 681L1920 671L1920 539L1920 561L1824 561L1824 539L1728 539L1728 528L1632 528L1632 550L1536 550L1536 561L1440 561L1440 539L1344 539L1344 539L1248 539L1248 517L1152 517L1152 561L1056 561L1056 561L960 561L960 528L864 528L864 517L768 517L768 528L672 528L672 561L576 561L576 561L480 561L480 539L384 539L384 550L288 550L288 539L192 539L192 550L96 550L96 550L0 550Z" fill="#0a0a0a"></path><path d="M0 714L96 714L96 725L192 725L192 725L288 725L288 725L384 725L384 703L480 703L480 725L576 725L576 725L672 725L672 703L768 703L768 703L864 703L864 703L960 703L960 725L1056 725L1056 735L1152 735L1152 703L1248 703L1248 703L1344 703L1344 703L1440 703L1440 725L1536 725L1536 725L1632 725L1632 703L1728 703L1728 725L1824 725L1824 725L1920 725L1920 714L1920 669L1920 679L1824 679L1824 679L1728 679L1728 658L1632 658L1632 679L1536 679L1536 679L1440 679L1440 658L1344 658L1344 658L1248 658L1248 658L1152 658L1152 690L1056 690L1056 679L960 679L960 658L864 658L864 658L768 658L768 658L672 658L672 679L576 679L576 679L480 679L480 658L384 658L384 679L288 679L288 679L192 679L192 679L96 679L96 669L0 669Z" fill="#0b0b0b"></path><path d="M0 757L96 757L96 779L192 779L192 768L288 768L288 779L384 779L384 746L480 746L480 768L576 768L576 779L672 779L672 757L768 757L768 757L864 757L864 746L960 746L960 779L1056 779L1056 779L1152 779L1152 757L1248 757L1248 746L1344 746L1344 757L1440 757L1440 768L1536 768L1536 779L1632 779L1632 757L1728 757L1728 768L1824 768L1824 779L1920 779L1920 768L1920 712L1920 723L1824 723L1824 723L1728 723L1728 701L1632 701L1632 723L1536 723L1536 723L1440 723L1440 701L1344 701L1344 701L1248 701L1248 701L1152 701L1152 733L1056 733L1056 723L960 723L960 701L864 701L864 701L768 701L768 701L672 701L672 723L576 723L576 723L480 723L480 701L384 701L384 723L288 723L288 723L192 723L192 723L96 723L96 712L0 712Z" fill="#0c0c0c"></path><path d="M0 984L96 984L96 984L192 984L192 984L288 984L288 984L384 984L384 984L480 984L480 984L576 984L576 984L672 984L672 984L768 984L768 984L864 984L864 984L960 984L960 984L1056 984L1056 984L1152 984L1152 984L1248 984L1248 984L1344 984L1344 984L1440 984L1440 984L1536 984L1536 984L1632 984L1632 984L1728 984L1728 984L1824 984L1824 984L1920 984L1920 984L1920 766L1920 777L1824 777L1824 766L1728 766L1728 755L1632 755L1632 777L1536 777L1536 766L1440 766L1440 755L1344 755L1344 744L1248 744L1248 755L1152 755L1152 777L1056 777L1056 777L960 777L960 744L864 744L864 755L768 755L768 755L672 755L672 777L576 777L576 766L480 766L480 744L384 744L384 777L288 777L288 766L192 766L192 777L96 777L96 755L0 755Z" fill="#0e0e0e"></path><path d="M0 1038L96 1038L96 1038L192 1038L192 1038L288 1038L288 1038L384 1038L384 1038L480 1038L480 1038L576 1038L576 1038L672 1038L672 1038L768 1038L768 1038L864 1038L864 1038L960 1038L960 1038L1056 1038L1056 1038L1152 1038L1152 1038L1248 1038L1248 1038L1344 1038L1344 1038L1440 1038L1440 1038L1536 1038L1536 1038L1632 1038L1632 1038L1728 1038L1728 1038L1824 1038L1824 1038L1920 1038L1920 1038L1920 982L1920 982L1824 982L1824 982L1728 982L1728 982L1632 982L1632 982L1536 982L1536 982L1440 982L1440 982L1344 982L1344 982L1248 982L1248 982L1152 982L1152 982L1056 982L1056 982L960 982L960 982L864 982L864 982L768 982L768 982L672 982L672 982L576 982L576 982L480 982L480 982L384 982L384 982L288 982L288 982L192 982L192 982L96 982L96 982L0 982Z" fill="#0f0f0f"></path><path d="M0 1081L96 1081L96 1081L192 1081L192 1081L288 1081L288 1081L384 1081L384 1081L480 1081L480 1081L576 1081L576 1081L672 1081L672 1081L768 1081L768 1081L864 1081L864 1081L960 1081L960 1081L1056 1081L1056 1081L1152 1081L1152 1081L1248 1081L1248 1081L1344 1081L1344 1081L1440 1081L1440 1081L1536 1081L1536 1081L1632 1081L1632 1081L1728 1081L1728 1081L1824 1081L1824 1081L1920 1081L1920 1081L1920 1036L1920 1036L1824 1036L1824 1036L1728 1036L1728 1036L1632 1036L1632 1036L1536 1036L1536 1036L1440 1036L1440 1036L1344 1036L1344 1036L1248 1036L1248 1036L1152 1036L1152 1036L1056 1036L1056 1036L960 1036L960 1036L864 1036L864 1036L768 1036L768 1036L672 1036L672 1036L576 1036L576 1036L480 1036L480 1036L384 1036L384 1036L288 1036L288 1036L192 1036L192 1036L96 1036L96 1036L0 1036Z" fill="#101010"></path></svg>