<svg id="visual" viewBox="0 0 900 600" width="900" height="600" xmlns="http://www.w3.org/2000/svg" xmlns:xlink="http://www.w3.org/1999/xlink" version="1.1"><g stroke-width="1" stroke-linejoin="bevel"><path d="M395 309L315 306L312 408Z" fill="#c97c7c" stroke="#c97c7c"></path><path d="M312 408L415 405L395 309Z" fill="#cb7e7e" stroke="#cb7e7e"></path><path d="M312 408L389 490L415 405Z" fill="#cd7f7f" stroke="#cd7f7f"></path><path d="M315 306L200 400L312 408Z" fill="#c07676" stroke="#c07676"></path><path d="M312 408L293 506L389 490Z" fill="#c47878" stroke="#c47878"></path><path d="M200 400L293 506L312 408Z" fill="#bb7272" stroke="#bb7272"></path><path d="M498 509L508 407L415 405Z" fill="#bd7373" stroke="#bd7373"></path><path d="M415 405L515 291L395 309Z" fill="#bb7272" stroke="#bb7272"></path><path d="M291 194L199 290L315 306Z" fill="#bb7272" stroke="#bb7272"></path><path d="M315 306L199 290L200 400Z" fill="#bd7373" stroke="#bd7373"></path><path d="M508 407L515 291L415 405Z" fill="#c47878" stroke="#c47878"></path><path d="M392 187L291 194L315 306Z" fill="#bb7272" stroke="#bb7272"></path><path d="M392 187L315 306L395 309Z" fill="#c47878" stroke="#c47878"></path><path d="M484 190L392 187L395 309Z" fill="#c87b7b" stroke="#c87b7b"></path><path d="M389 490L498 509L415 405Z" fill="#c27777" stroke="#c27777"></path><path d="M412 600L498 509L389 490Z" fill="#c87b7b" stroke="#c87b7b"></path><path d="M200 400L190 494L293 506Z" fill="#c27777" stroke="#c27777"></path><path d="M86 391L190 494L200 400Z" fill="#c97c7c" stroke="#c97c7c"></path><path d="M515 291L484 190L395 309Z" fill="#bb7272" stroke="#bb7272"></path><path d="M291 194L184 211L199 290Z" fill="#bf7474" stroke="#bf7474"></path><path d="M199 290L97 297L200 400Z" fill="#c27777" stroke="#c27777"></path><path d="M189 600L307 600L293 506Z" fill="#c47878" stroke="#c47878"></path><path d="M293 506L307 600L389 490Z" fill="#c47878" stroke="#c47878"></path><path d="M307 600L412 600L389 490Z" fill="#c97c7c" stroke="#c97c7c"></path><path d="M602 409L599 300L508 407Z" fill="#cd7f7f" stroke="#cd7f7f"></path><path d="M508 407L599 300L515 291Z" fill="#bf7474" stroke="#bf7474"></path><path d="M515 291L610 188L484 190Z" fill="#bb7272" stroke="#bb7272"></path><path d="M593 511L602 409L508 407Z" fill="#c87b7b" stroke="#c87b7b"></path><path d="M593 511L508 407L498 509Z" fill="#c27777" stroke="#c27777"></path><path d="M484 190L404 103L392 187Z" fill="#cd7f7f" stroke="#cd7f7f"></path><path d="M392 187L300 101L291 194Z" fill="#cb7e7e" stroke="#cb7e7e"></path><path d="M291 194L194 111L184 211Z" fill="#cd7f7f" stroke="#cd7f7f"></path><path d="M493 107L404 103L484 190Z" fill="#bd7373" stroke="#bd7373"></path><path d="M404 103L300 101L392 187Z" fill="#c07676" stroke="#c07676"></path><path d="M184 211L97 297L199 290Z" fill="#c97c7c" stroke="#c97c7c"></path><path d="M97 297L86 391L200 400Z" fill="#c67979" stroke="#c67979"></path><path d="M412 600L485 600L498 509Z" fill="#bd7373" stroke="#bd7373"></path><path d="M591 600L593 511L498 509Z" fill="#c67979" stroke="#c67979"></path><path d="M610 188L493 107L484 190Z" fill="#bb7272" stroke="#bb7272"></path><path d="M190 494L189 600L293 506Z" fill="#bd7373" stroke="#bd7373"></path><path d="M91 513L189 600L190 494Z" fill="#c47878" stroke="#c47878"></path><path d="M300 101L194 111L291 194Z" fill="#c47878" stroke="#c47878"></path><path d="M184 211L86 186L97 297Z" fill="#bd7373" stroke="#bd7373"></path><path d="M86 391L91 513L190 494Z" fill="#c07676" stroke="#c07676"></path><path d="M599 300L610 188L515 291Z" fill="#c27777" stroke="#c27777"></path><path d="M706 290L610 188L599 300Z" fill="#bf7474" stroke="#bf7474"></path><path d="M194 111L86 186L184 211Z" fill="#cd7f7f" stroke="#cd7f7f"></path><path d="M0 286L0 402L86 391Z" fill="#bb7272" stroke="#bb7272"></path><path d="M485 600L591 600L498 509Z" fill="#cb7e7e" stroke="#cb7e7e"></path><path d="M593 511L690 410L602 409Z" fill="#c27777" stroke="#c27777"></path><path d="M711 496L690 410L593 511Z" fill="#c07676" stroke="#c07676"></path><path d="M602 409L690 410L599 300Z" fill="#c87b7b" stroke="#c87b7b"></path><path d="M0 286L86 391L97 297Z" fill="#bb7272" stroke="#bb7272"></path><path d="M86 391L0 486L91 513Z" fill="#c87b7b" stroke="#c87b7b"></path><path d="M690 410L706 290L599 300Z" fill="#c27777" stroke="#c27777"></path><path d="M414 0L315 0L404 103Z" fill="#cd7f7f" stroke="#cd7f7f"></path><path d="M404 103L315 0L300 101Z" fill="#bf7474" stroke="#bf7474"></path><path d="M300 101L197 0L194 111Z" fill="#c47878" stroke="#c47878"></path><path d="M194 111L106 85L86 186Z" fill="#cd7f7f" stroke="#cd7f7f"></path><path d="M91 513L86 600L189 600Z" fill="#c67979" stroke="#c67979"></path><path d="M0 600L86 600L91 513Z" fill="#c97c7c" stroke="#c97c7c"></path><path d="M0 210L0 286L97 297Z" fill="#c97c7c" stroke="#c97c7c"></path><path d="M610 188L615 108L493 107Z" fill="#c67979" stroke="#c67979"></path><path d="M493 107L414 0L404 103Z" fill="#cd7f7f" stroke="#cd7f7f"></path><path d="M710 186L615 108L610 188Z" fill="#c97c7c" stroke="#c97c7c"></path><path d="M509 0L414 0L493 107Z" fill="#bd7373" stroke="#bd7373"></path><path d="M197 0L106 85L194 111Z" fill="#c27777" stroke="#c27777"></path><path d="M86 186L0 210L97 297Z" fill="#c47878" stroke="#c47878"></path><path d="M0 402L0 486L86 391Z" fill="#c67979" stroke="#c67979"></path><path d="M0 93L0 210L86 186Z" fill="#c97c7c" stroke="#c97c7c"></path><path d="M702 600L711 496L593 511Z" fill="#c87b7b" stroke="#c87b7b"></path><path d="M690 410L799 397L706 290Z" fill="#c47878" stroke="#c47878"></path><path d="M587 0L509 0L493 107Z" fill="#c07676" stroke="#c07676"></path><path d="M315 0L197 0L300 101Z" fill="#bb7272" stroke="#bb7272"></path><path d="M706 290L710 186L610 188Z" fill="#bd7373" stroke="#bd7373"></path><path d="M615 108L587 0L493 107Z" fill="#bf7474" stroke="#bf7474"></path><path d="M794 193L710 186L706 290Z" fill="#bd7373" stroke="#bd7373"></path><path d="M591 600L702 600L593 511Z" fill="#cd7f7f" stroke="#cd7f7f"></path><path d="M705 0L587 0L615 108Z" fill="#cd7f7f" stroke="#cd7f7f"></path><path d="M0 486L0 600L91 513Z" fill="#c47878" stroke="#c47878"></path><path d="M710 186L706 103L615 108Z" fill="#c07676" stroke="#c07676"></path><path d="M106 85L0 93L86 186Z" fill="#c47878" stroke="#c47878"></path><path d="M87 0L0 93L106 85Z" fill="#c07676" stroke="#c07676"></path><path d="M197 0L87 0L106 85Z" fill="#c97c7c" stroke="#c97c7c"></path><path d="M793 486L690 410L711 496Z" fill="#c67979" stroke="#c67979"></path><path d="M793 486L799 397L690 410Z" fill="#c47878" stroke="#c47878"></path><path d="M710 186L794 193L706 103Z" fill="#bd7373" stroke="#bd7373"></path><path d="M793 600L793 486L711 496Z" fill="#bd7373" stroke="#bd7373"></path><path d="M900 399L813 293L799 397Z" fill="#cd7f7f" stroke="#cd7f7f"></path><path d="M799 397L813 293L706 290Z" fill="#c97c7c" stroke="#c97c7c"></path><path d="M813 293L794 193L706 290Z" fill="#c67979" stroke="#c67979"></path><path d="M702 600L793 600L711 496Z" fill="#bd7373" stroke="#bd7373"></path><path d="M793 486L900 399L799 397Z" fill="#c67979" stroke="#c67979"></path><path d="M803 87L705 0L706 103Z" fill="#c07676" stroke="#c07676"></path><path d="M706 103L705 0L615 108Z" fill="#cd7f7f" stroke="#cd7f7f"></path><path d="M87 0L0 0L0 93Z" fill="#bb7272" stroke="#bb7272"></path><path d="M900 105L803 87L794 193Z" fill="#c27777" stroke="#c27777"></path><path d="M794 193L803 87L706 103Z" fill="#c47878" stroke="#c47878"></path><path d="M900 502L900 399L793 486Z" fill="#bb7272" stroke="#bb7272"></path><path d="M813 293L900 189L794 193Z" fill="#c07676" stroke="#c07676"></path><path d="M900 399L900 297L813 293Z" fill="#cd7f7f" stroke="#cd7f7f"></path><path d="M793 600L900 502L793 486Z" fill="#c67979" stroke="#c67979"></path><path d="M900 297L900 189L813 293Z" fill="#c27777" stroke="#c27777"></path><path d="M900 0L801 0L803 87Z" fill="#bf7474" stroke="#bf7474"></path><path d="M803 87L801 0L705 0Z" fill="#bb7272" stroke="#bb7272"></path><path d="M793 600L900 600L900 502Z" fill="#c67979" stroke="#c67979"></path><path d="M900 189L900 105L794 193Z" fill="#bd7373" stroke="#bd7373"></path><path d="M900 105L900 0L803 87Z" fill="#bf7474" stroke="#bf7474"></path></g></svg>